<?xml version="1.0" encoding="utf-8"?>
<!-- Generator: Adobe Illustrator 19.0.0, SVG Export Plug-In . SVG Version: 6.00 Build 0)  -->
<svg version="1.1" id="Camada_1" xmlns="http://www.w3.org/2000/svg" xmlns:xlink="http://www.w3.org/1999/xlink" x="0px" y="0px"
	 viewBox="-276 363 58 68" style="enable-background:new -276 363 58 68;" xml:space="preserve">
<style type="text/css">
	.st0{fill:#34CB79;}
	.st1{fill:#FFFFFF;}
</style>
<path class="st0" d="M-218,380.3v24c0,9.5-7.7,17.3-17.1,17.3h-1.7l-8.8,8.9c-0.3,0.3-0.8,0.6-1.4,0.6c-0.5,0-0.9-0.2-1.3-0.5
	l-0.1-0.2l0,0l-8.8-8.8h-1.7c-9.4,0-17.1-7.7-17.1-17.3v-24c0-9.5,7.7-17.3,17.1-17.3h23.8C-225.7,363-218,370.7-218,380.3z"/>
<g>
	<g>
		<g>
			<path class="st1" d="M-229.3,377c-0.2-0.1-0.4-0.1-0.6,0l-3.1,1.6l-2.4-4.2c-0.8-1.6-2.5-2.5-4.2-2.5h-12c-1.8,0-3.5,0.9-4.4,2.5
				l-2.2,3.6c-0.2,0.3-0.1,0.8,0.2,1l7.9,5c0.1,0.1,0.3,0.1,0.4,0.1c0.1,0,0.1,0,0.2,0c0.2,0,0.4-0.2,0.5-0.4l3-5.5l3.3,6.3l-3,1.8
				c-0.3,0.2-0.4,0.5-0.3,0.8c0.1,0.3,0.3,0.5,0.6,0.6l10.7,1.2c0,0,0.1,0,0.1,0c0.3,0,0.5-0.2,0.6-0.4l5.1-10.6
				C-228.8,377.6-228.9,377.1-229.3,377z M-250,382.4l-6.7-4.3l1.9-3c0.7-1.1,1.9-1.8,3.2-1.8h2.9l1.8,3.6L-250,382.4z
				 M-235.1,387.4l-8.1-0.9l1.8-1.1c0.3-0.2,0.4-0.6,0.3-1l-5.9-11.2h7.4c1.3,0,2.4,0.7,3,1.8l2.8,4.8c0.2,0.3,0.6,0.5,0.9,0.3
				l1.8-0.9L-235.1,387.4z"/>
		</g>
	</g>
	<g>
		<g>
			<path class="st1" d="M-225.9,392l-2.3-4.7c-0.2-0.4-0.6-0.5-1-0.3c0,0,0,0,0,0l-8.7,5c-0.3,0.2-0.5,0.6-0.3,1l3,5.4h-6.7v-2.9
				c0-0.4-0.3-0.7-0.7-0.7c-0.2,0-0.4,0.1-0.5,0.2l-7.2,7.9c-0.2,0.3-0.3,0.6,0,0.9l7.2,9.4c0.2,0.3,0.7,0.4,1,0.1
				c0.2-0.1,0.3-0.4,0.3-0.6v-2.2h5c1.8,0,3.4-0.9,4.2-2.5l5-8.7l1.5-2.4C-225,395.6-225,393.6-225.9,392z M-233.8,407.5
				c-0.6,1.1-1.7,1.8-3,1.8h-5.8c-0.4,0-0.7,0.3-0.7,0.7v0.8l-5.6-7.2l5.6-6.1v1.7c0,0.4,0.3,0.7,0.7,0.7h13.2L-233.8,407.5z
				 M-227.2,396.4l-1.3,2.1h-4.9l-3.1-5.5l7.4-4.3l2,4C-226.5,393.9-226.5,395.3-227.2,396.4z"/>
		</g>
	</g>
	<g>
		<g>
			<path class="st1" d="M-251.3,393.2l-4.3-9.4c-0.1-0.3-0.4-0.4-0.7-0.4l-11.5,0.7c-0.4,0-0.7,0.4-0.7,0.8c0,0.2,0.1,0.4,0.3,0.6
				l0,0l3.6,2.2l-2.4,4.8c-0.9,1.6-0.9,3.5,0,5l4,6.9l2.2,3.8c0.9,1.6,2.6,2.6,4.5,2.6h2.9c0.4,0,0.7-0.3,0.7-0.7V400
				c0-0.4-0.3-0.7-0.7-0.7h-5.4l3.6-6.2l3,1.1c0.4,0.1,0.8,0,0.9-0.4C-251.2,393.5-251.2,393.3-251.3,393.2z M-254.1,400.7v8.7h-2.2
				c-1.3,0-2.6-0.7-3.3-1.9l-2-3.4l2-3.3L-254.1,400.7L-254.1,400.7z M-255.2,391.4c-0.3-0.1-0.7,0-0.9,0.3l-6.2,10.8l-3.4-5.8
				c-0.6-1.1-0.6-2.5,0-3.6l2.7-5.4c0.2-0.3,0.1-0.7-0.3-0.9l-2.2-1.4l8.8-0.5l3.4,7.3L-255.2,391.4z"/>
		</g>
	</g>
</g>
</svg>
